<?xml version="1.0" encoding="UTF-8" standalone="no"?>
<!-- Created with Inkscape (http://www.inkscape.org/) -->

<svg
   xmlns:dc="http://purl.org/dc/elements/1.1/"
   xmlns:cc="http://creativecommons.org/ns#"
   xmlns:rdf="http://www.w3.org/1999/02/22-rdf-syntax-ns#"
   xmlns:svg="http://www.w3.org/2000/svg"
   xmlns="http://www.w3.org/2000/svg"
   xmlns:sodipodi="http://sodipodi.sourceforge.net/DTD/sodipodi-0.dtd"
   xmlns:inkscape="http://www.inkscape.org/namespaces/inkscape"
   width="150"
   height="150"
   viewBox="0 0 39.687499 39.687501"
   version="1.1"
   id="svg8"
   inkscape:version="0.92.1 r15371"
   sodipodi:docname="logo.svg">
  <defs
     id="defs2" />
  <sodipodi:namedview
     id="base"
     pagecolor="#ffffff"
     bordercolor="#666666"
     borderopacity="1.0"
     inkscape:pageopacity="0.0"
     inkscape:pageshadow="2"
     inkscape:zoom="3.959798"
     inkscape:cx="162.55468"
     inkscape:cy="75.917337"
     inkscape:document-units="mm"
     inkscape:current-layer="layer1"
     showgrid="false"
     inkscape:window-width="1920"
     inkscape:window-height="1001"
     inkscape:window-x="-9"
     inkscape:window-y="-9"
     inkscape:window-maximized="1"
     units="px" />
  <metadata
     id="metadata5">
    <rdf:RDF>
      <cc:Work
         rdf:about="">
        <dc:format>image/svg+xml</dc:format>
        <dc:type
           rdf:resource="http://purl.org/dc/dcmitype/StillImage" />
        <dc:title></dc:title>
      </cc:Work>
    </rdf:RDF>
  </metadata>
  <g
     inkscape:label="Layer 1"
     inkscape:groupmode="layer"
     id="layer1"
     transform="translate(0,-257.31248)">
    <g
       id="layer1-0"
       inkscape:label="Layer 1"
       transform="matrix(0.22135641,0,0,0.19932883,-3.4432293,246.66529)">
      <g
         id="g4575">
        <path
           style="fill:#c55a11;fill-opacity:1;stroke-width:0.41210532"
           d="M 96.783731,252.10354 C 83.732039,250.82459 68.415711,245.05223 57.317624,237.22972 43.365867,227.39577 32.099221,213.56775 24.827137,197.3528 c -6.47602,-14.43991 -9.343521,-28.08141 -9.343521,-44.44974 0,-9.7209 0.641631,-15.64796 2.655487,-24.53022 8.047238,-35.492714 33.366767,-63.354599 65.551899,-72.134036 7.641288,-2.084383 12.796738,-2.74262 21.480898,-2.74262 8.68545,0 13.84208,0.658533 21.4809,2.743212 25.64182,6.997842 47.11664,26.058395 58.88305,52.263174 6.45143,14.36792 9.32434,28.04807 9.32434,44.40049 0,9.7209 -0.64163,15.64796 -2.6555,24.53021 -4.91797,21.6909 -16.70448,41.38003 -32.92528,55.00098 -17.57327,14.75663 -40.1421,21.85972 -62.495679,19.66929 z m 4.681769,-16.09035 c 0,-6.65845 -0.10204,-8.27473 -0.51508,-8.16185 -1.18684,0.32429 -23.652788,11.04629 -23.662963,11.29327 -0.01327,0.30675 7.277953,2.7219 10.522871,3.48593 3.621525,0.85267 8.65432,1.58743 11.216747,1.63754 l 2.438425,0.0477 z m 18.33693,7.17984 c 3.39838,-0.65278 12.78739,-3.42283 13.21368,-3.89844 0.0998,-0.11139 0.10823,-0.26205 0.0189,-0.33495 -0.35087,-0.28613 -23.6197,-11.18522 -23.87967,-11.18522 -0.15233,0 -0.27698,3.75136 -0.27698,8.33633 v 8.33633 l 3.60886,-0.27105 c 1.98488,-0.14906 5.27675,-0.59144 7.31527,-0.983 z M 96.611663,221.14128 c 0.175902,-0.2061 -20.593858,-12.13152 -20.775585,-11.92876 -0.197003,0.2198 -4.792631,22.84445 -4.798441,23.6231 -0.0029,0.3673 25.061626,-11.09399 25.574026,-11.69434 z m 40.387037,-0.2635 c -1.27246,-6.30702 -2.3934,-11.55638 -2.49099,-11.66526 -0.18289,-0.20407 -20.95092,11.7234 -20.77377,11.93076 0.51958,0.60827 25.40554,11.98794 25.47957,11.65111 0.0543,-0.24713 -0.94236,-5.60962 -2.21481,-11.91661 z M 72.358752,189.57449 c 4.698377,-23.40137 8.623516,-42.79281 8.722534,-43.09208 0.134629,-0.40708 -0.616667,-0.54412 -2.982916,-0.54412 h -3.162917 v -12.40602 -12.40601 h 5.591894 5.591895 L 88.3722,109.9173 c 1.239129,-6.16491 2.732342,-13.55955 3.318264,-16.432521 l 1.065291,-5.223581 h 12.411395 12.4114 l 1.06478,5.223581 c 0.58561,2.872971 2.08096,10.267611 3.323,16.432521 l 2.25822,11.20896 h 5.59189 5.59191 v 12.40601 12.40602 h -3.16293 c -2.36598,0 -3.11768,0.13704 -2.98339,0.54412 0.0988,0.29927 4.01109,19.64285 8.69411,42.98574 4.68301,23.34288 8.56637,42.5178 8.62969,42.6109 0.21395,0.31458 4.4712,-2.7609 8.656,-6.25317 15.03859,-12.54992 26.1598,-31.546 30.4894,-52.07876 2.07722,-9.85106 2.63802,-23.48384 1.37414,-33.40544 -4.73089,-37.13817 -29.19506,-67.272391 -62.03594,-76.414008 -6.86309,-1.910416 -11.88523,-2.555393 -19.89753,-2.555393 -8.211485,0 -13.063675,0.646128 -20.500542,2.729886 -29.130596,8.162232 -52.323775,33.975452 -59.701099,66.445305 -3.081742,13.56368 -3.214925,29.64946 -0.357702,43.19965 4.838476,22.94602 17.603496,43.05402 35.644881,56.14926 1.690526,1.22707 3.182839,2.22992 3.316244,2.22857 0.133449,-0.001 4.086694,-19.14907 8.78507,-42.55046 z m 29.106748,15.30018 c 0,-7.8857 -0.10056,-9.79773 -0.5062,-9.62406 -4.260401,1.82408 -18.219811,8.38482 -18.216729,8.56163 0.0044,0.23512 17.862489,10.74926 18.430319,10.85087 0.16093,0.0288 0.29261,-4.376 0.29261,-9.78844 z m 17.06926,4.39956 c 4.98363,-2.87297 9.06329,-5.33087 9.0659,-5.46199 0.003,-0.17681 -13.95261,-6.7362 -18.21617,-8.56163 -0.40565,-0.17368 -0.50619,1.74491 -0.50619,9.66034 0,5.43238 0.13389,9.81177 0.29764,9.73196 0.16371,-0.0798 4.37518,-2.49571 9.35882,-5.36868 z m -30.949142,-16.48518 8.879369,-4.07919 -5.205173,-3.05284 c -7.790971,-4.56941 -9.358606,-5.41176 -9.590335,-5.15322 -0.366756,0.40922 -3.521873,16.36443 -3.236027,16.36443 0.150038,0 4.268524,-1.83564 9.152166,-4.07918 z m 42.948632,-3.98531 c -0.90689,-4.43546 -1.75032,-8.17763 -1.87429,-8.31595 -0.12401,-0.13836 -3.50522,1.65329 -7.51392,3.98135 l -7.28854,4.23281 8.72714,4.04777 c 4.79994,2.22629 8.92321,4.06369 9.16283,4.08314 0.2732,0.0222 -0.17929,-2.97241 -1.21322,-8.02912 z m -29.15082,-16.88386 -0.11295,-3.66146 -6.371579,3.12433 c -3.50437,1.7184 -6.355252,3.30746 -6.335316,3.53127 0.01991,0.2238 2.887157,2.00032 6.371576,3.9478 l 6.335319,3.54088 0.11295,-3.41068 c 0.0621,-1.87588 0.0621,-5.05833 0,-7.07214 z m 20.51784,2.76827 c -0.18875,-0.1946 -2.18662,-1.24446 -4.43972,-2.33301 -2.25311,-1.08854 -5.10606,-2.48014 -6.33991,-3.09241 l -2.24334,-1.11324 v 7.17936 7.17936 l 6.68307,-3.73313 c 3.67568,-2.0532 6.52863,-3.89233 6.3399,-4.08693 z m -31.1484,-9.92319 c 3.315713,-1.61606 6.027676,-3.03622 6.026585,-3.15592 -0.0044,-0.43485 -9.812952,-6.16855 -10.070118,-5.88635 -0.455835,0.50023 -2.684491,11.98052 -2.325757,11.98052 0.187404,0 3.053578,-1.32222 6.36929,-2.93825 z m 34.34709,-2.90687 c -0.66054,-3.2148 -1.32001,-5.97574 -1.46551,-6.1354 -0.25995,-0.28526 -10.06513,5.45334 -10.07125,5.89433 -0.004,0.27102 11.71506,6.0458 12.31706,6.06957 0.26036,0.01 -0.037,-2.21082 -0.7803,-5.8285 z m -23.63446,-11.3597 v -4.58116 l -6.534984,0.11928 c -4.952328,0.0905 -6.534974,0.25269 -6.534974,0.66993 0,0.45828 11.864738,8.19259 12.777348,8.32924 0.16093,0.0242 0.29261,-2.01772 0.29261,-4.53736 z m 14.37946,0.51339 c 3.52094,-2.13861 6.27213,-4.07367 6.18889,-4.35298 -0.10337,-0.34695 -2.16618,-0.53987 -6.65269,-0.62223 l -6.50286,-0.11928 v 4.61744 c 0,2.5396 0.14127,4.55215 0.31395,4.47234 0.17267,-0.0798 3.1664,-1.87766 6.65271,-3.99523 z m 12.54073,-17.26187 v -4.35298 H 105.1719 81.958112 v 4.35298 4.353 H 105.1719 128.38569 Z M 101.4655,108.50257 V 95.878924 h -1.484789 -1.484793 l -2.419393,12.079546 c -1.33067,6.64374 -2.418168,12.3244 -2.416694,12.62367 0.0015,0.39882 1.044544,0.54412 3.904186,0.54412 h 3.901483 z m 15.21846,12.07957 c 0.001,-0.29927 -1.08602,-5.97993 -2.41668,-12.62367 l -2.41939,-12.079546 h -1.4848 -1.48479 v 12.623646 12.62369 h 3.90147 c 2.85965,0 3.9022,-0.14527 3.90419,-0.54412 z"
           id="path3691"
           inkscape:connector-curvature="0" />
        <text
           xml:space="preserve"
           style="font-style:normal;font-weight:normal;font-size:150.06658936px;line-height:1.25;font-family:sans-serif;letter-spacing:0px;word-spacing:0px;fill:#222a35;fill-opacity:1;stroke:none;stroke-width:3.75166464"
           x="18.60741"
           y="165.72691"
           id="text4524"
           transform="scale(0.73209518,1.3659426)"><tspan
             sodipodi:role="line"
             id="tspan4522"
             x="18.60741"
             y="165.72691"
             style="font-style:normal;font-variant:normal;font-weight:normal;font-stretch:normal;font-family:Georgia;-inkscape-font-specification:Georgia;fill:#222a35;fill-opacity:1;stroke-width:3.75166464">C</tspan></text>
        <text
           xml:space="preserve"
           style="font-style:normal;font-weight:normal;font-size:153.10870361px;line-height:1.25;font-family:sans-serif;letter-spacing:0px;word-spacing:0px;fill:#222a35;fill-opacity:1;stroke:none;stroke-width:3.82771778"
           x="166.47743"
           y="164.60381"
           id="text4524-9"
           transform="scale(0.71754917,1.3936327)"><tspan
             sodipodi:role="line"
             id="tspan4522-9"
             x="166.47743"
             y="164.60381"
             style="font-style:normal;font-variant:normal;font-weight:normal;font-stretch:normal;font-family:Georgia;-inkscape-font-specification:Georgia;fill:#222a35;fill-opacity:1;stroke-width:3.82771778">P</tspan></text>
      </g>
    </g>
  </g>
</svg>
